<svg width="150" height="101" viewBox="0 0 150 101" fill="none" xmlns="http://www.w3.org/2000/svg">
<rect y="0.333496" width="150" height="100" rx="30" fill="#00AAE7"/>
<circle cx="75" cy="33.3335" r="25" fill="#441170"/>
<path d="M72.2034 43.3335V34.51H78.3051V43.3335H85.9322V31.5688H90.5085L75.2542 18.3335L60 31.5688H64.5763V43.3335H72.2034Z" fill="white"/>
<path d="M63.0786 76.5397H58.6476V80.8867H56.6106V70.7647H58.6476V74.8247H63.0786V70.7647H65.1226V80.8867H63.0786V76.5397ZM70.0416 81.0267C69.3323 81.0267 68.7139 80.8751 68.1866 80.5717C67.6639 80.2684 67.2579 79.8391 66.9686 79.2837C66.6839 78.7284 66.5416 78.0704 66.5416 77.3097C66.5416 76.5491 66.6839 75.8841 66.9686 75.3147C67.2579 74.7454 67.6639 74.3021 68.1866 73.9847C68.7139 73.6674 69.3346 73.5087 70.0486 73.5087C70.7626 73.5087 71.3809 73.6651 71.9036 73.9777C72.4263 74.2857 72.8299 74.7244 73.1146 75.2937C73.3993 75.8631 73.5416 76.5351 73.5416 77.3097C73.5416 78.0377 73.4016 78.6817 73.1216 79.2417C72.8463 79.7971 72.4473 80.2334 71.9246 80.5507C71.4066 80.8681 70.7789 81.0267 70.0416 81.0267ZM70.0486 79.5077C70.4079 79.5077 70.6973 79.4027 70.9166 79.1927C71.1359 78.9827 71.2946 78.7074 71.3926 78.3667C71.4953 78.0214 71.5466 77.6457 71.5466 77.2397C71.5466 76.8571 71.4999 76.4954 71.4066 76.1547C71.3179 75.8141 71.1639 75.5387 70.9446 75.3287C70.7253 75.1187 70.4266 75.0137 70.0486 75.0137C69.6893 75.0137 69.3976 75.1141 69.1736 75.3147C68.9543 75.5107 68.7933 75.7791 68.6906 76.1197C68.5879 76.4557 68.5366 76.8291 68.5366 77.2397C68.5366 77.6177 68.5833 77.9817 68.6766 78.3317C68.7699 78.6771 68.9263 78.9594 69.1456 79.1787C69.3649 79.3981 69.6659 79.5077 70.0486 79.5077ZM74.9043 80.8867V73.6487H76.9063V74.6707C77.1256 74.3534 77.4196 74.0804 77.7883 73.8517C78.1616 73.6231 78.6306 73.5087 79.1953 73.5087C79.4426 73.5087 79.6946 73.5531 79.9513 73.6417C80.208 73.7304 80.4483 73.8611 80.6723 74.0337C80.901 74.2017 81.0853 74.4141 81.2253 74.6707C81.4586 74.3394 81.7643 74.0641 82.1423 73.8447C82.525 73.6207 82.9496 73.5087 83.4163 73.5087C83.687 73.5087 83.96 73.5531 84.2353 73.6417C84.5153 73.7304 84.772 73.8751 85.0053 74.0757C85.2386 74.2764 85.4253 74.5447 85.5653 74.8807C85.71 75.2121 85.7823 75.6227 85.7823 76.1127V80.8867H83.7383V76.3647C83.7383 76.0754 83.68 75.8444 83.5633 75.6717C83.4513 75.4944 83.3066 75.3684 83.1293 75.2937C82.9566 75.2144 82.7723 75.1747 82.5763 75.1747C82.3943 75.1747 82.21 75.2121 82.0233 75.2867C81.8366 75.3567 81.678 75.4711 81.5473 75.6297C81.4166 75.7884 81.3513 75.9961 81.3513 76.2527V80.8867H79.3143V76.1827C79.3143 75.9634 79.256 75.7791 79.1393 75.6297C79.0226 75.4804 78.8756 75.3684 78.6983 75.2937C78.5256 75.2144 78.3483 75.1747 78.1663 75.1747C77.9796 75.1747 77.793 75.2144 77.6063 75.2937C77.4196 75.3684 77.2633 75.4874 77.1373 75.6507C77.0113 75.8094 76.9483 76.0101 76.9483 76.2527V80.8867H74.9043ZM89.1214 77.7367C89.1167 78.1054 89.1751 78.4274 89.2964 78.7027C89.4177 78.9734 89.5927 79.1834 89.8214 79.3327C90.0547 79.4774 90.3347 79.5497 90.6614 79.5497C91.0114 79.5497 91.3171 79.4751 91.5784 79.3257C91.8444 79.1764 92.0287 78.9314 92.1314 78.5907H93.9724C93.8931 79.1041 93.6877 79.5427 93.3564 79.9067C93.0297 80.2707 92.6331 80.5484 92.1664 80.7397C91.6997 80.9311 91.2144 81.0267 90.7104 81.0267C89.9964 81.0267 89.3664 80.8774 88.8204 80.5787C88.2791 80.2754 87.8567 79.8484 87.5534 79.2977C87.2501 78.7471 87.0984 78.0984 87.0984 77.3517C87.0984 76.6284 87.2361 75.9774 87.5114 75.3987C87.7867 74.8154 88.1857 74.3557 88.7084 74.0197C89.2357 73.6791 89.8681 73.5087 90.6054 73.5087C91.3427 73.5087 91.9611 73.6651 92.4604 73.9777C92.9644 74.2857 93.3424 74.7174 93.5944 75.2727C93.8511 75.8234 93.9794 76.4604 93.9794 77.1837V77.7367H89.1214ZM89.1144 76.5187H92.0684C92.0684 76.2294 92.0147 75.9634 91.9074 75.7207C91.8001 75.4781 91.6367 75.2867 91.4174 75.1467C91.2027 75.0067 90.9321 74.9367 90.6054 74.9367C90.2881 74.9367 90.0174 75.0137 89.7934 75.1677C89.5741 75.3171 89.4061 75.5131 89.2894 75.7557C89.1727 75.9984 89.1144 76.2527 89.1144 76.5187Z" fill="white"/>
</svg>
