<svg width="150" height="101" viewBox="0 0 150 101" fill="none" xmlns="http://www.w3.org/2000/svg">
<rect y="0.333008" width="150" height="100" rx="30" fill="#18978C"/>
<circle cx="75" cy="33.333" r="25" fill="#441170"/>
<path d="M89.2321 36.958H79.0201V46.333H72.2121V36.958H62V30.708H72.2121V21.333H79.0201V30.708H89.2321V36.958Z" fill="white"/>
<path d="M60.1596 76.5392H55.7286V80.8862H53.6916V70.7642H55.7286V74.8242H60.1596V70.7642H62.2036V80.8862H60.1596V76.5392ZM65.6946 77.7362C65.69 78.1049 65.7483 78.4269 65.8696 78.7022C65.991 78.9729 66.166 79.1829 66.3946 79.3322C66.628 79.4769 66.908 79.5492 67.2346 79.5492C67.5846 79.5492 67.8903 79.4746 68.1516 79.3252C68.4176 79.1759 68.602 78.9309 68.7046 78.5902H70.5456C70.4663 79.1036 70.261 79.5422 69.9296 79.9062C69.603 80.2702 69.2063 80.5479 68.7396 80.7392C68.273 80.9306 67.7876 81.0262 67.2836 81.0262C66.5696 81.0262 65.9396 80.8769 65.3936 80.5782C64.8523 80.2749 64.43 79.8479 64.1266 79.2972C63.8233 78.7466 63.6716 78.0979 63.6716 77.3512C63.6716 76.6279 63.8093 75.9769 64.0846 75.3982C64.36 74.8149 64.759 74.3552 65.2816 74.0192C65.809 73.6786 66.4413 73.5082 67.1786 73.5082C67.916 73.5082 68.5343 73.6646 69.0336 73.9772C69.5376 74.2852 69.9156 74.7169 70.1676 75.2722C70.4243 75.8229 70.5526 76.4599 70.5526 77.1832V77.7362H65.6946ZM65.6876 76.5182H68.6416C68.6416 76.2289 68.588 75.9629 68.4806 75.7202C68.3733 75.4776 68.21 75.2862 67.9906 75.1462C67.776 75.0062 67.5053 74.9362 67.1786 74.9362C66.8613 74.9362 66.5906 75.0132 66.3666 75.1672C66.1473 75.3166 65.9793 75.5126 65.8626 75.7552C65.746 75.9979 65.6876 76.2522 65.6876 76.5182ZM74.0307 81.0262C73.5687 81.0262 73.1533 80.9399 72.7847 80.7672C72.416 80.5946 72.1243 80.3449 71.9097 80.0182C71.695 79.6869 71.5877 79.2856 71.5877 78.8142C71.5877 78.0209 71.884 77.4189 72.4767 77.0082C73.0693 76.5929 74.005 76.3782 75.2837 76.3642L76.1867 76.3502V75.9162C76.1867 75.5849 76.0887 75.3306 75.8927 75.1532C75.7013 74.9712 75.4027 74.8826 74.9967 74.8872C74.698 74.8919 74.4133 74.9619 74.1427 75.0972C73.8767 75.2326 73.6947 75.4682 73.5967 75.8042H71.8957C71.9237 75.2816 72.0753 74.8522 72.3507 74.5162C72.626 74.1756 72.9993 73.9236 73.4707 73.7602C73.9467 73.5922 74.4857 73.5082 75.0877 73.5082C75.8297 73.5082 76.4247 73.6016 76.8727 73.7882C77.3207 73.9702 77.645 74.2339 77.8457 74.5792C78.0463 74.9199 78.1467 75.3259 78.1467 75.7972V80.8862H76.4387L76.2707 79.6402C76.0233 80.1629 75.713 80.5246 75.3397 80.7252C74.971 80.9259 74.5347 81.0262 74.0307 81.0262ZM74.7167 79.6822C74.9033 79.6822 75.083 79.6496 75.2557 79.5842C75.433 79.5142 75.5893 79.4232 75.7247 79.3112C75.8647 79.1946 75.9767 79.0639 76.0607 78.9192C76.1447 78.7746 76.1867 78.6252 76.1867 78.4712V77.4002L75.4517 77.4142C75.111 77.4189 74.7937 77.4609 74.4997 77.5402C74.2057 77.6149 73.9677 77.7386 73.7857 77.9112C73.6083 78.0839 73.5197 78.3172 73.5197 78.6112C73.5197 78.9472 73.6363 79.2109 73.8697 79.4022C74.103 79.5889 74.3853 79.6822 74.7167 79.6822ZM82.2661 81.0122C81.7341 81.0122 81.3117 80.9492 80.9991 80.8232C80.6864 80.6972 80.4554 80.5316 80.3061 80.3262C80.1567 80.1162 80.0611 79.8852 80.0191 79.6332C79.9771 79.3766 79.9561 79.1176 79.9561 78.8562V70.4842H81.9581V78.6042C81.9581 78.8702 82.0141 79.0872 82.1261 79.2552C82.2427 79.4186 82.4597 79.5189 82.7771 79.5562L83.1201 79.5772V80.8372C82.9801 80.8839 82.8377 80.9236 82.6931 80.9562C82.5484 80.9936 82.4061 81.0122 82.2661 81.0122ZM88.5086 75.0692H86.8986L86.9126 78.9262C86.9126 79.1036 86.9336 79.2366 86.9756 79.3252C87.0223 79.4092 87.0923 79.4652 87.1856 79.4932C87.2836 79.5166 87.4073 79.5282 87.5566 79.5282H88.5296V80.7882C88.4363 80.8302 88.2893 80.8699 88.0886 80.9072C87.8926 80.9446 87.6173 80.9632 87.2626 80.9632C86.628 80.9632 86.1356 80.8816 85.7856 80.7182C85.4403 80.5549 85.2 80.3262 85.0646 80.0322C84.9293 79.7382 84.8616 79.3976 84.8616 79.0102V75.0692H83.6856V73.6482H84.9316L85.4426 71.4642H86.8986V73.6412H88.5086V75.0692ZM90.0186 80.8862V70.4842H92.0486V74.6912C92.1652 74.5232 92.3122 74.3576 92.4896 74.1942C92.6669 74.0262 92.8886 73.8862 93.1546 73.7742C93.4206 73.6622 93.7449 73.6062 94.1276 73.6062C94.5896 73.6062 95.0096 73.6972 95.3876 73.8792C95.7702 74.0566 96.0759 74.3156 96.3046 74.6562C96.5379 74.9969 96.6546 75.4122 96.6546 75.9022V80.8862H94.6036V76.2032C94.6036 75.8766 94.4846 75.6269 94.2466 75.4542C94.0132 75.2769 93.7286 75.1882 93.3926 75.1882C93.1732 75.1882 92.9609 75.2279 92.7556 75.3072C92.5502 75.3866 92.3822 75.5079 92.2516 75.6712C92.1256 75.8299 92.0626 76.0282 92.0626 76.2662V80.8862H90.0186Z" fill="white"/>
</svg>
