<svg width="150" height="101" viewBox="0 0 150 101" fill="none" xmlns="http://www.w3.org/2000/svg">
<rect y="0.333984" width="150" height="100" rx="30" fill="#447AAF"/>
<circle cx="75" cy="33.334" r="25" fill="#441170"/>
<path d="M81.75 32.834V21.584C81.75 21.2525 81.6183 20.9345 81.3839 20.7001C81.1495 20.4657 80.8315 20.334 80.5 20.334H64.25C63.9185 20.334 63.6005 20.4657 63.3661 20.7001C63.1317 20.9345 63 21.2525 63 21.584V39.084L68 34.084H80.5C80.8315 34.084 81.1495 33.9523 81.3839 33.7179C81.6183 33.4834 81.75 33.1655 81.75 32.834ZM86.75 25.334H84.25V36.584H68V39.084C68 39.4155 68.1317 39.7334 68.3661 39.9679C68.6005 40.2023 68.9185 40.334 69.25 40.334H83L88 45.334V26.584C88 26.2525 87.8683 25.9345 87.6339 25.7001C87.3995 25.4657 87.0815 25.334 86.75 25.334Z" fill="white"/>
<path d="M27.9953 80.8877V70.7657H34.9463L34.9393 72.4877H30.0463V74.9447H34.2953V76.6317H30.0323V79.1447L35.0163 79.1517V80.8877H27.9953ZM36.541 80.8877V73.6497H38.543V74.6717C38.7623 74.3544 39.0563 74.0814 39.425 73.8527C39.7983 73.624 40.2673 73.5097 40.832 73.5097C41.0793 73.5097 41.3313 73.554 41.588 73.6427C41.8447 73.7314 42.085 73.862 42.309 74.0347C42.5377 74.2027 42.722 74.415 42.862 74.6717C43.0953 74.3404 43.401 74.065 43.779 73.8457C44.1617 73.6217 44.5863 73.5097 45.053 73.5097C45.3237 73.5097 45.5967 73.554 45.872 73.6427C46.152 73.7314 46.4087 73.876 46.642 74.0767C46.8753 74.2774 47.062 74.5457 47.202 74.8817C47.3467 75.213 47.419 75.6237 47.419 76.1137V80.8877H45.375V76.3657C45.375 76.0764 45.3167 75.8454 45.2 75.6727C45.088 75.4954 44.9433 75.3694 44.766 75.2947C44.5933 75.2154 44.409 75.1757 44.213 75.1757C44.031 75.1757 43.8467 75.213 43.66 75.2877C43.4733 75.3577 43.3147 75.472 43.184 75.6307C43.0533 75.7894 42.988 75.997 42.988 76.2537V80.8877H40.951V76.1837C40.951 75.9644 40.8927 75.78 40.776 75.6307C40.6593 75.4814 40.5123 75.3694 40.335 75.2947C40.1623 75.2154 39.985 75.1757 39.803 75.1757C39.6163 75.1757 39.4297 75.2154 39.243 75.2947C39.0563 75.3694 38.9 75.4884 38.774 75.6517C38.648 75.8104 38.585 76.011 38.585 76.2537V80.8877H36.541ZM49.0781 83.1417V73.6497H51.1291L51.1361 74.6927C51.2435 74.52 51.3741 74.3637 51.5281 74.2237C51.6868 74.079 51.8618 73.953 52.0531 73.8457C52.2445 73.7384 52.4521 73.6567 52.6761 73.6007C52.9001 73.54 53.1358 73.5097 53.3831 73.5097C53.9198 73.5097 54.3981 73.6427 54.8181 73.9087C55.2381 74.17 55.5671 74.576 55.8051 75.1267C56.0478 75.6727 56.1691 76.368 56.1691 77.2127C56.1691 78.09 56.0385 78.811 55.7771 79.3757C55.5205 79.9357 55.1658 80.351 54.7131 80.6217C54.2605 80.8924 53.7495 81.0277 53.1801 81.0277C52.9468 81.0277 52.7275 80.995 52.5221 80.9297C52.3168 80.869 52.1255 80.7827 51.9481 80.6707C51.7755 80.5587 51.6191 80.4304 51.4791 80.2857C51.3438 80.1364 51.2248 79.9754 51.1221 79.8027V83.1417H49.0781ZM52.6901 79.5297C53.1335 79.5297 53.5045 79.3454 53.8031 78.9767C54.1065 78.608 54.2581 78.0247 54.2581 77.2267C54.2581 76.5267 54.1135 75.9807 53.8241 75.5887C53.5395 75.192 53.1615 74.9937 52.6901 74.9937C52.1628 74.9937 51.7685 75.2084 51.5071 75.6377C51.2505 76.0624 51.1221 76.592 51.1221 77.2267C51.1221 77.6327 51.1781 78.0107 51.2901 78.3607C51.4068 78.7107 51.5795 78.993 51.8081 79.2077C52.0415 79.4224 52.3355 79.5297 52.6901 79.5297ZM60.6353 81.0277C59.926 81.0277 59.3077 80.876 58.7803 80.5727C58.2577 80.2694 57.8517 79.84 57.5623 79.2847C57.2777 78.7294 57.1353 78.0714 57.1353 77.3107C57.1353 76.55 57.2777 75.885 57.5623 75.3157C57.8517 74.7464 58.2577 74.303 58.7803 73.9857C59.3077 73.6684 59.9283 73.5097 60.6423 73.5097C61.3563 73.5097 61.9747 73.666 62.4973 73.9787C63.02 74.2867 63.4237 74.7254 63.7083 75.2947C63.993 75.864 64.1353 76.536 64.1353 77.3107C64.1353 78.0387 63.9953 78.6827 63.7153 79.2427C63.44 79.798 63.041 80.2344 62.5183 80.5517C62.0003 80.869 61.3727 81.0277 60.6353 81.0277ZM60.6423 79.5087C61.0017 79.5087 61.291 79.4037 61.5103 79.1937C61.7297 78.9837 61.8883 78.7084 61.9863 78.3677C62.089 78.0224 62.1403 77.6467 62.1403 77.2407C62.1403 76.858 62.0937 76.4964 62.0003 76.1557C61.9117 75.815 61.7577 75.5397 61.5383 75.3297C61.319 75.1197 61.0203 75.0147 60.6423 75.0147C60.283 75.0147 59.9913 75.115 59.7673 75.3157C59.548 75.5117 59.387 75.78 59.2843 76.1207C59.1817 76.4567 59.1303 76.83 59.1303 77.2407C59.1303 77.6187 59.177 77.9827 59.2703 78.3327C59.3637 78.678 59.52 78.9604 59.7393 79.1797C59.9587 79.399 60.2597 79.5087 60.6423 79.5087ZM75.1793 73.6497L72.7993 80.8877H71.1753L69.8243 76.5057L68.4803 80.8877H66.8983L64.5533 73.6497H66.3593L67.7453 78.1367H67.8013L69.1313 73.6497H70.5873L71.9313 78.1367H71.9873L73.3313 73.6497H75.1793ZM77.6507 77.7377C77.646 78.1064 77.7044 78.4284 77.8257 78.7037C77.947 78.9744 78.122 79.1844 78.3507 79.3337C78.584 79.4784 78.864 79.5507 79.1907 79.5507C79.5407 79.5507 79.8464 79.476 80.1077 79.3267C80.3737 79.1774 80.558 78.9324 80.6607 78.5917H82.5017C82.4224 79.105 82.217 79.5437 81.8857 79.9077C81.559 80.2717 81.1624 80.5494 80.6957 80.7407C80.229 80.932 79.7437 81.0277 79.2397 81.0277C78.5257 81.0277 77.8957 80.8784 77.3497 80.5797C76.8084 80.2764 76.386 79.8494 76.0827 79.2987C75.7794 78.748 75.6277 78.0994 75.6277 77.3527C75.6277 76.6294 75.7654 75.9784 76.0407 75.3997C76.316 74.8164 76.715 74.3567 77.2377 74.0207C77.765 73.68 78.3974 73.5097 79.1347 73.5097C79.872 73.5097 80.4904 73.666 80.9897 73.9787C81.4937 74.2867 81.8717 74.7184 82.1237 75.2737C82.3804 75.8244 82.5087 76.4614 82.5087 77.1847V77.7377H77.6507ZM77.6437 76.5197H80.5977C80.5977 76.2304 80.544 75.9644 80.4367 75.7217C80.3294 75.479 80.166 75.2877 79.9467 75.1477C79.732 75.0077 79.4614 74.9377 79.1347 74.9377C78.8174 74.9377 78.5467 75.0147 78.3227 75.1687C78.1034 75.318 77.9354 75.514 77.8187 75.7567C77.702 75.9994 77.6437 76.2537 77.6437 76.5197ZM83.9277 80.8877V73.6497H85.8947V75.3647C86.0114 74.996 86.1747 74.674 86.3847 74.3987C86.5994 74.1187 86.8584 73.9017 87.1617 73.7477C87.4651 73.589 87.8081 73.5097 88.1907 73.5097C88.2561 73.5097 88.3167 73.5144 88.3727 73.5237C88.4334 73.5284 88.4777 73.5377 88.5057 73.5517V75.4977C88.4637 75.479 88.4124 75.4674 88.3517 75.4627C88.2957 75.458 88.2444 75.4534 88.1977 75.4487C87.7964 75.416 87.4534 75.4277 87.1687 75.4837C86.8841 75.5397 86.6531 75.6354 86.4757 75.7707C86.2984 75.906 86.1701 76.0717 86.0907 76.2677C86.0114 76.4637 85.9717 76.683 85.9717 76.9257V80.8877H83.9277ZM89.6152 80.8877V73.6497H91.6172V74.6717C91.8366 74.3544 92.1306 74.0814 92.4992 73.8527C92.8726 73.624 93.3416 73.5097 93.9062 73.5097C94.1536 73.5097 94.4056 73.554 94.6622 73.6427C94.9189 73.7314 95.1592 73.862 95.3832 74.0347C95.6119 74.2027 95.7962 74.415 95.9362 74.6717C96.1696 74.3404 96.4752 74.065 96.8532 73.8457C97.2359 73.6217 97.6606 73.5097 98.1272 73.5097C98.3979 73.5097 98.6709 73.554 98.9462 73.6427C99.2262 73.7314 99.4829 73.876 99.7162 74.0767C99.9496 74.2774 100.136 74.5457 100.276 74.8817C100.421 75.213 100.493 75.6237 100.493 76.1137V80.8877H98.4492V76.3657C98.4492 76.0764 98.3909 75.8454 98.2742 75.6727C98.1622 75.4954 98.0176 75.3694 97.8402 75.2947C97.6676 75.2154 97.4832 75.1757 97.2872 75.1757C97.1052 75.1757 96.9209 75.213 96.7342 75.2877C96.5476 75.3577 96.3889 75.472 96.2582 75.6307C96.1276 75.7894 96.0622 75.997 96.0622 76.2537V80.8877H94.0252V76.1837C94.0252 75.9644 93.9669 75.78 93.8502 75.6307C93.7336 75.4814 93.5866 75.3694 93.4092 75.2947C93.2366 75.2154 93.0592 75.1757 92.8772 75.1757C92.6906 75.1757 92.5039 75.2154 92.3172 75.2947C92.1306 75.3694 91.9742 75.4884 91.8482 75.6517C91.7222 75.8104 91.6592 76.011 91.6592 76.2537V80.8877H89.6152ZM103.832 77.7377C103.828 78.1064 103.886 78.4284 104.007 78.7037C104.129 78.9744 104.304 79.1844 104.532 79.3337C104.766 79.4784 105.046 79.5507 105.372 79.5507C105.722 79.5507 106.028 79.476 106.289 79.3267C106.555 79.1774 106.74 78.9324 106.842 78.5917H108.683C108.604 79.105 108.399 79.5437 108.067 79.9077C107.741 80.2717 107.344 80.5494 106.877 80.7407C106.411 80.932 105.925 81.0277 105.421 81.0277C104.707 81.0277 104.077 80.8784 103.531 80.5797C102.99 80.2764 102.568 79.8494 102.264 79.2987C101.961 78.748 101.809 78.0994 101.809 77.3527C101.809 76.6294 101.947 75.9784 102.222 75.3997C102.498 74.8164 102.897 74.3567 103.419 74.0207C103.947 73.68 104.579 73.5097 105.316 73.5097C106.054 73.5097 106.672 73.666 107.171 73.9787C107.675 74.2867 108.053 74.7184 108.305 75.2737C108.562 75.8244 108.69 76.4614 108.69 77.1847V77.7377H103.832ZM103.825 76.5197H106.779C106.779 76.2304 106.726 75.9644 106.618 75.7217C106.511 75.479 106.348 75.2877 106.128 75.1477C105.914 75.0077 105.643 74.9377 105.316 74.9377C104.999 74.9377 104.728 75.0147 104.504 75.1687C104.285 75.318 104.117 75.514 104 75.7567C103.884 75.9994 103.825 76.2537 103.825 76.5197ZM110.109 80.8877V73.6497H112.118V74.6717C112.23 74.4944 112.375 74.324 112.552 74.1607C112.734 73.9927 112.963 73.855 113.238 73.7477C113.514 73.6404 113.84 73.5867 114.218 73.5867C114.662 73.5867 115.075 73.673 115.457 73.8457C115.845 74.0184 116.157 74.2914 116.395 74.6647C116.633 75.0334 116.752 75.5164 116.752 76.1137V80.8877H114.708V76.3657C114.708 75.9737 114.592 75.6797 114.358 75.4837C114.125 75.2877 113.84 75.1897 113.504 75.1897C113.28 75.1897 113.063 75.2294 112.853 75.3087C112.648 75.388 112.48 75.507 112.349 75.6657C112.219 75.8244 112.153 76.0204 112.153 76.2537V80.8877H110.109ZM122.504 75.0707H120.894L120.908 78.9277C120.908 79.105 120.929 79.238 120.971 79.3267C121.017 79.4107 121.087 79.4667 121.181 79.4947C121.279 79.518 121.402 79.5297 121.552 79.5297H122.525V80.7897C122.431 80.8317 122.284 80.8714 122.084 80.9087C121.888 80.946 121.612 80.9647 121.258 80.9647C120.623 80.9647 120.131 80.883 119.781 80.7197C119.435 80.5564 119.195 80.3277 119.06 80.0337C118.924 79.7397 118.857 79.399 118.857 79.0117V75.0707H117.681V73.6497H118.927L119.438 71.4657H120.894V73.6427H122.504V75.0707Z" fill="white"/>
</svg>
