<svg width="150" height="101" viewBox="0 0 150 101" fill="none" xmlns="http://www.w3.org/2000/svg">
<rect y="0.333984" width="150" height="100" rx="30" fill="#DD3F6C"/>
<circle cx="75" cy="33.334" r="25" fill="#441170"/>
<path d="M75.625 20.334L60 27.6257L62.8299 28.9486L75.625 34.9173L88.4028 28.9486L91.25 27.6257L75.625 20.334ZM88.4201 31.5111L75.625 37.4902L62.8125 31.5215L60 32.834L75.625 40.1257L91.25 32.834L88.4201 31.5111ZM88.4201 36.7194L75.625 42.6986L62.8125 36.7298L60 38.0423L75.625 45.334L91.25 38.0423L88.4201 36.7194Z" fill="white"/>
<path d="M15.2805 80.8877V70.7657H22.2315L22.2245 72.4877H17.3315V74.9447H21.5805V76.6317H17.3175V79.1447L22.3015 79.1517V80.8877H15.2805ZM26.5552 81.0277C25.5845 81.0277 24.8285 80.694 24.2872 80.0267C23.7459 79.3547 23.4752 78.4214 23.4752 77.2267C23.4752 76.4707 23.5849 75.815 23.8042 75.2597C24.0235 74.7044 24.3479 74.275 24.7772 73.9717C25.2065 73.6637 25.7315 73.5097 26.3522 73.5097C26.6135 73.5097 26.8562 73.54 27.0802 73.6007C27.3089 73.6567 27.5165 73.736 27.7032 73.8387C27.8899 73.9414 28.0532 74.0604 28.1932 74.1957C28.3332 74.331 28.4475 74.4757 28.5362 74.6297V70.4857H30.5872V80.8877H29.1032L28.8722 79.4037C28.8069 79.6044 28.7159 79.8004 28.5992 79.9917C28.4825 80.183 28.3332 80.358 28.1512 80.5167C27.9692 80.6707 27.7452 80.7944 27.4792 80.8877C27.2179 80.981 26.9099 81.0277 26.5552 81.0277ZM27.0032 79.5577C27.5165 79.5577 27.8992 79.378 28.1512 79.0187C28.4079 78.6594 28.5362 78.0527 28.5362 77.1987C28.5315 76.704 28.4732 76.2934 28.3612 75.9667C28.2492 75.64 28.0812 75.3974 27.8572 75.2387C27.6379 75.0754 27.3579 74.9937 27.0172 74.9937C26.5739 74.9937 26.2052 75.164 25.9112 75.5047C25.6172 75.8407 25.4702 76.4054 25.4702 77.1987C25.4702 78.006 25.6079 78.601 25.8832 78.9837C26.1585 79.3664 26.5319 79.5577 27.0032 79.5577ZM35.0108 81.0277C34.6748 81.0277 34.3434 80.9764 34.0168 80.8737C33.6948 80.771 33.4008 80.6194 33.1348 80.4187C32.8688 80.218 32.6541 79.9707 32.4908 79.6767C32.3321 79.3827 32.2528 79.042 32.2528 78.6547V73.6497H34.2968V78.3957C34.2968 78.7317 34.4064 79.007 34.6258 79.2217C34.8451 79.4364 35.1671 79.5437 35.5918 79.5437C35.9931 79.5437 36.3104 79.441 36.5438 79.2357C36.7818 79.0257 36.9008 78.734 36.9008 78.3607V73.6497H38.9238V80.8877H37.3838L37.1458 79.4527C37.0618 79.8774 36.9031 80.204 36.6698 80.4327C36.4411 80.6567 36.1774 80.8107 35.8788 80.8947C35.5848 80.9834 35.2954 81.0277 35.0108 81.0277ZM43.6889 73.5097C44.2956 73.5097 44.8182 73.6334 45.2569 73.8807C45.7002 74.128 46.0479 74.4617 46.2999 74.8817C46.5566 75.3017 46.7036 75.7707 46.7409 76.2887H45.0399C45.0072 76.0974 44.9396 75.9084 44.8369 75.7217C44.7342 75.5304 44.5896 75.374 44.4029 75.2527C44.2162 75.1267 43.9829 75.0637 43.7029 75.0637C43.2269 75.0637 42.8396 75.248 42.5409 75.6167C42.2469 75.9807 42.0999 76.536 42.0999 77.2827C42.0999 77.9874 42.2446 78.5474 42.5339 78.9627C42.8232 79.3734 43.2269 79.5787 43.7449 79.5787C44.0202 79.5787 44.2489 79.511 44.4309 79.3757C44.6176 79.2404 44.7622 79.0794 44.8649 78.8927C44.9676 78.7014 45.0329 78.524 45.0609 78.3607H46.7199C46.6872 78.86 46.5426 79.3127 46.2859 79.7187C46.0292 80.12 45.6792 80.4397 45.2359 80.6777C44.7972 80.911 44.2816 81.0277 43.6889 81.0277C43.0169 81.0277 42.4172 80.8784 41.8899 80.5797C41.3626 80.281 40.9472 79.854 40.6439 79.2987C40.3452 78.7387 40.1959 78.0714 40.1959 77.2967C40.1959 76.55 40.3406 75.892 40.6299 75.3227C40.9192 74.7534 41.3252 74.31 41.8479 73.9927C42.3752 73.6707 42.9889 73.5097 43.6889 73.5097ZM50.2074 81.0277C49.7454 81.0277 49.3301 80.9414 48.9614 80.7687C48.5928 80.596 48.3011 80.3464 48.0864 80.0197C47.8718 79.6884 47.7644 79.287 47.7644 78.8157C47.7644 78.0224 48.0608 77.4204 48.6534 77.0097C49.2461 76.5944 50.1818 76.3797 51.4604 76.3657L52.3634 76.3517V75.9177C52.3634 75.5864 52.2654 75.332 52.0694 75.1547C51.8781 74.9727 51.5794 74.884 51.1734 74.8887C50.8748 74.8934 50.5901 74.9634 50.3194 75.0987C50.0534 75.234 49.8714 75.4697 49.7734 75.8057H48.0724C48.1004 75.283 48.2521 74.8537 48.5274 74.5177C48.8028 74.177 49.1761 73.925 49.6474 73.7617C50.1234 73.5937 50.6624 73.5097 51.2644 73.5097C52.0064 73.5097 52.6014 73.603 53.0494 73.7897C53.4974 73.9717 53.8218 74.2354 54.0224 74.5807C54.2231 74.9214 54.3234 75.3274 54.3234 75.7987V80.8877H52.6154L52.4474 79.6417C52.2001 80.1644 51.8898 80.526 51.5164 80.7267C51.1478 80.9274 50.7114 81.0277 50.2074 81.0277ZM50.8934 79.6837C51.0801 79.6837 51.2598 79.651 51.4324 79.5857C51.6098 79.5157 51.7661 79.4247 51.9014 79.3127C52.0414 79.196 52.1534 79.0654 52.2374 78.9207C52.3214 78.776 52.3634 78.6267 52.3634 78.4727V77.4017L51.6284 77.4157C51.2878 77.4204 50.9704 77.4624 50.6764 77.5417C50.3824 77.6164 50.1444 77.74 49.9624 77.9127C49.7851 78.0854 49.6964 78.3187 49.6964 78.6127C49.6964 78.9487 49.8131 79.2124 50.0464 79.4037C50.2798 79.5904 50.5621 79.6837 50.8934 79.6837ZM60.2284 75.0707H58.6184L58.6324 78.9277C58.6324 79.105 58.6534 79.238 58.6954 79.3267C58.742 79.4107 58.812 79.4667 58.9054 79.4947C59.0034 79.518 59.127 79.5297 59.2764 79.5297H60.2494V80.7897C60.156 80.8317 60.009 80.8714 59.8084 80.9087C59.6124 80.946 59.337 80.9647 58.9824 80.9647C58.3477 80.9647 57.8554 80.883 57.5054 80.7197C57.16 80.5564 56.9197 80.3277 56.7844 80.0337C56.649 79.7397 56.5814 79.399 56.5814 79.0117V75.0707H55.4054V73.6497H56.6514L57.1624 71.4657H58.6184V73.6427H60.2284V75.0707ZM63.7963 73.6497V80.8877H61.8433V73.6497H63.7963ZM63.8173 70.7727V72.6137H61.8293V70.7727H63.8173ZM68.7564 81.0277C68.0471 81.0277 67.4288 80.876 66.9014 80.5727C66.3788 80.2694 65.9728 79.84 65.6834 79.2847C65.3988 78.7294 65.2564 78.0714 65.2564 77.3107C65.2564 76.55 65.3988 75.885 65.6834 75.3157C65.9728 74.7464 66.3788 74.303 66.9014 73.9857C67.4288 73.6684 68.0494 73.5097 68.7634 73.5097C69.4774 73.5097 70.0958 73.666 70.6184 73.9787C71.1411 74.2867 71.5448 74.7254 71.8294 75.2947C72.1141 75.864 72.2564 76.536 72.2564 77.3107C72.2564 78.0387 72.1164 78.6827 71.8364 79.2427C71.5611 79.798 71.1621 80.2344 70.6394 80.5517C70.1214 80.869 69.4938 81.0277 68.7564 81.0277ZM68.7634 79.5087C69.1228 79.5087 69.4121 79.4037 69.6314 79.1937C69.8508 78.9837 70.0094 78.7084 70.1074 78.3677C70.2101 78.0224 70.2614 77.6467 70.2614 77.2407C70.2614 76.858 70.2148 76.4964 70.1214 76.1557C70.0328 75.815 69.8788 75.5397 69.6594 75.3297C69.4401 75.1197 69.1414 75.0147 68.7634 75.0147C68.4041 75.0147 68.1124 75.115 67.8884 75.3157C67.6691 75.5117 67.5081 75.78 67.4054 76.1207C67.3028 76.4567 67.2514 76.83 67.2514 77.2407C67.2514 77.6187 67.2981 77.9827 67.3914 78.3327C67.4848 78.678 67.6411 78.9604 67.8604 79.1797C68.0798 79.399 68.3808 79.5087 68.7634 79.5087ZM73.6191 80.8877V73.6497H75.6281V74.6717C75.7401 74.4944 75.8848 74.324 76.0621 74.1607C76.2441 73.9927 76.4728 73.855 76.7481 73.7477C77.0235 73.6404 77.3501 73.5867 77.7281 73.5867C78.1715 73.5867 78.5845 73.673 78.9671 73.8457C79.3545 74.0184 79.6671 74.2914 79.9051 74.6647C80.1431 75.0334 80.2621 75.5164 80.2621 76.1137V80.8877H78.2181V76.3657C78.2181 75.9737 78.1015 75.6797 77.8681 75.4837C77.6348 75.2877 77.3501 75.1897 77.0141 75.1897C76.7901 75.1897 76.5731 75.2294 76.3631 75.3087C76.1578 75.388 75.9898 75.507 75.8591 75.6657C75.7285 75.8244 75.6631 76.0204 75.6631 76.2537V80.8877H73.6191ZM88.9868 70.6117C89.5608 70.6117 90.0811 70.705 90.5478 70.8917C91.0191 71.0737 91.3924 71.3304 91.6678 71.6617C91.9478 71.9884 92.0878 72.371 92.0878 72.8097C92.0878 73.0337 92.0411 73.26 91.9478 73.4887C91.8544 73.7127 91.7144 73.939 91.5278 74.1677C91.3458 74.3917 91.1148 74.6157 90.8348 74.8397C90.5548 75.0637 90.2258 75.2877 89.8478 75.5117L91.4298 77.3737C91.4951 77.229 91.5744 77.0424 91.6678 76.8137C91.7611 76.585 91.8498 76.3284 91.9338 76.0437C92.0178 75.7544 92.0784 75.4534 92.1158 75.1407H94.2088C94.0921 75.556 93.9288 75.9597 93.7188 76.3517C93.5134 76.7437 93.2918 77.124 93.0538 77.4927C92.8204 77.8567 92.6011 78.209 92.3958 78.5497L94.3978 80.8877H92.0528L91.1848 79.8937C90.6434 80.2904 90.0904 80.568 89.5258 80.7267C88.9611 80.8807 88.4291 80.9577 87.9298 80.9577C87.1878 80.9577 86.5741 80.848 86.0888 80.6287C85.6081 80.4047 85.2511 80.0967 85.0178 79.7047C84.7844 79.3127 84.6678 78.86 84.6678 78.3467C84.6678 77.8847 84.7611 77.4764 84.9478 77.1217C85.1391 76.7624 85.4238 76.4334 85.8018 76.1347C86.1798 75.8314 86.6511 75.5304 87.2158 75.2317C86.9778 74.9657 86.7678 74.7184 86.5858 74.4897C86.4038 74.261 86.2614 74.0277 86.1588 73.7897C86.0561 73.547 86.0048 73.2764 86.0048 72.9777C86.0048 72.5297 86.1308 72.1284 86.3828 71.7737C86.6348 71.4144 86.9848 71.132 87.4328 70.9267C87.8808 70.7167 88.3988 70.6117 88.9868 70.6117ZM89.0848 71.8577C88.7534 71.867 88.4921 71.9674 88.3008 72.1587C88.1141 72.3454 88.0208 72.5717 88.0208 72.8377C88.0208 72.9917 88.0534 73.148 88.1188 73.3067C88.1841 73.4654 88.2681 73.6194 88.3708 73.7687C88.4781 73.9134 88.5924 74.051 88.7138 74.1817L89.0008 74.4827C89.3368 74.2727 89.5981 74.0814 89.7848 73.9087C89.9761 73.7314 90.1091 73.561 90.1838 73.3977C90.2584 73.2344 90.2958 73.0687 90.2958 72.9007C90.2958 72.6534 90.2374 72.4527 90.1208 72.2987C90.0088 72.14 89.8594 72.0257 89.6728 71.9557C89.4908 71.881 89.2948 71.8484 89.0848 71.8577ZM88.2168 76.3937C87.8434 76.6037 87.5261 76.865 87.2648 77.1777C87.0081 77.4857 86.9054 77.838 86.9568 78.2347C86.9848 78.4867 87.0734 78.699 87.2228 78.8717C87.3768 79.0444 87.5611 79.175 87.7758 79.2637C87.9904 79.3524 88.2098 79.3967 88.4338 79.3967C88.7044 79.3967 89.0054 79.3384 89.3368 79.2217C89.6681 79.1004 89.9574 78.9254 90.2048 78.6967L88.2168 76.3937ZM102.876 81.0277C102.377 81.0277 101.887 80.9647 101.406 80.8387C100.926 80.7127 100.487 80.5237 100.09 80.2717C99.6937 80.0197 99.3647 79.7047 99.1034 79.3267C98.8467 78.9487 98.6927 78.5054 98.6414 77.9967H100.734C100.804 78.3047 100.937 78.5637 101.133 78.7737C101.329 78.9837 101.577 79.1447 101.875 79.2567C102.174 79.3687 102.505 79.4247 102.869 79.4247C103.243 79.4247 103.583 79.378 103.891 79.2847C104.199 79.1914 104.447 79.0514 104.633 78.8647C104.82 78.6734 104.913 78.4354 104.913 78.1507C104.913 77.894 104.836 77.684 104.682 77.5207C104.533 77.3574 104.33 77.2244 104.073 77.1217C103.817 77.019 103.525 76.935 103.198 76.8697L101.448 76.5127C100.683 76.368 100.076 76.0647 99.6284 75.6027C99.1804 75.136 98.9494 74.5154 98.9354 73.7407C98.9307 73.106 99.0987 72.5577 99.4394 72.0957C99.7847 71.629 100.251 71.2697 100.839 71.0177C101.432 70.7657 102.095 70.6397 102.827 70.6397C103.7 70.6397 104.433 70.7774 105.025 71.0527C105.623 71.3234 106.075 71.692 106.383 72.1587C106.696 72.6207 106.857 73.1364 106.866 73.7057H104.815C104.778 73.351 104.671 73.0687 104.493 72.8587C104.316 72.6487 104.087 72.497 103.807 72.4037C103.532 72.3104 103.217 72.2637 102.862 72.2637C102.592 72.2637 102.344 72.294 102.12 72.3547C101.901 72.4154 101.714 72.5017 101.56 72.6137C101.406 72.721 101.287 72.8494 101.203 72.9987C101.119 73.148 101.077 73.316 101.077 73.5027C101.077 73.7967 101.175 74.0347 101.371 74.2167C101.567 74.3987 101.934 74.548 102.47 74.6647L104.206 75.0217C104.827 75.143 105.319 75.3227 105.683 75.5607C106.052 75.7987 106.327 76.067 106.509 76.3657C106.696 76.6644 106.817 76.97 106.873 77.2827C106.934 77.5907 106.964 77.8754 106.964 78.1367C106.964 78.6827 106.792 79.175 106.446 79.6137C106.106 80.0477 105.63 80.393 105.018 80.6497C104.407 80.9017 103.693 81.0277 102.876 81.0277ZM115.516 80.8877H113.479L111.526 77.7657L110.567 78.7877V80.8877H108.523V70.4857H110.567V76.6527L113.227 73.6497H115.425L112.793 76.5337L115.516 80.8877ZM118.716 73.6497V80.8877H116.763V73.6497H118.716ZM118.737 70.7727V72.6137H116.749V70.7727H118.737ZM122.919 81.0137C122.387 81.0137 121.965 80.9507 121.652 80.8247C121.34 80.6987 121.109 80.533 120.959 80.3277C120.81 80.1177 120.714 79.8867 120.672 79.6347C120.63 79.378 120.609 79.119 120.609 78.8577V70.4857H122.611V78.6057C122.611 78.8717 122.667 79.0887 122.779 79.2567C122.896 79.42 123.113 79.5204 123.43 79.5577L123.773 79.5787V80.8387C123.633 80.8854 123.491 80.925 123.346 80.9577C123.202 80.995 123.059 81.0137 122.919 81.0137ZM127.267 81.0137C126.735 81.0137 126.313 80.9507 126 80.8247C125.687 80.6987 125.456 80.533 125.307 80.3277C125.158 80.1177 125.062 79.8867 125.02 79.6347C124.978 79.378 124.957 79.119 124.957 78.8577V70.4857H126.959V78.6057C126.959 78.8717 127.015 79.0887 127.127 79.2567C127.244 79.42 127.461 79.5204 127.778 79.5577L128.121 79.5787V80.8387C127.981 80.8854 127.839 80.925 127.694 80.9577C127.549 80.995 127.407 81.0137 127.267 81.0137ZM132.25 81.0277C131.746 81.0277 131.26 80.946 130.794 80.7827C130.327 80.6147 129.933 80.3534 129.611 79.9987C129.289 79.6394 129.083 79.175 128.995 78.6057H130.766C130.826 78.8624 130.936 79.0654 131.095 79.2147C131.258 79.364 131.442 79.4714 131.648 79.5367C131.853 79.5974 132.049 79.6277 132.236 79.6277C132.628 79.6277 132.943 79.567 133.181 79.4457C133.423 79.3197 133.545 79.1284 133.545 78.8717C133.545 78.6757 133.472 78.5194 133.328 78.4027C133.188 78.286 132.954 78.1974 132.628 78.1367L131.354 77.8707C130.714 77.7354 130.201 77.5067 129.814 77.1847C129.426 76.858 129.228 76.396 129.219 75.7987C129.219 75.3647 129.333 74.975 129.562 74.6297C129.795 74.2844 130.138 74.0114 130.591 73.8107C131.043 73.61 131.599 73.5097 132.257 73.5097C133.148 73.5097 133.86 73.7057 134.392 74.0977C134.928 74.4897 135.201 75.0427 135.211 75.7567H133.503C133.451 75.4767 133.311 75.262 133.083 75.1127C132.859 74.9587 132.576 74.8817 132.236 74.8817C131.881 74.8817 131.589 74.9447 131.361 75.0707C131.132 75.1967 131.018 75.388 131.018 75.6447C131.018 75.836 131.111 75.9877 131.298 76.0997C131.484 76.207 131.774 76.3004 132.166 76.3797L133.342 76.6457C133.748 76.7437 134.077 76.879 134.329 77.0517C134.585 77.2197 134.784 77.404 134.924 77.6047C135.064 77.8054 135.159 78.0084 135.211 78.2137C135.267 78.4144 135.295 78.5964 135.295 78.7597C135.295 79.2404 135.166 79.651 134.91 79.9917C134.653 80.3277 134.296 80.5844 133.839 80.7617C133.381 80.939 132.852 81.0277 132.25 81.0277Z" fill="white"/>
</svg>
