<svg width="150" height="101" viewBox="0 0 150 101" fill="none" xmlns="http://www.w3.org/2000/svg">
<rect y="0.333344" width="150" height="100" rx="30" fill="#E87C24"/>
<circle cx="75" cy="33.3333" r="25" fill="#441170"/>
<path d="M76.0839 34.1228H73.4033V27.5439H76.0839M76.0839 39.386H73.4033V36.7544H76.0839M60 43.3333H89.4872L74.7436 18.3333L60 43.3333Z" fill="white"/>
<path d="M57.5883 81.0266C57.089 81.0266 56.599 80.9636 56.1183 80.8376C55.6377 80.7116 55.199 80.5226 54.8023 80.2706C54.4057 80.0186 54.0767 79.7036 53.8153 79.3256C53.5587 78.9476 53.4047 78.5043 53.3533 77.9956H55.4463C55.5163 78.3036 55.6493 78.5626 55.8453 78.7726C56.0413 78.9826 56.2887 79.1436 56.5873 79.2556C56.886 79.3676 57.2173 79.4236 57.5813 79.4236C57.9547 79.4236 58.2953 79.377 58.6033 79.2836C58.9113 79.1903 59.1587 79.0503 59.3453 78.8636C59.532 78.6723 59.6253 78.4343 59.6253 78.1496C59.6253 77.893 59.5483 77.683 59.3943 77.5196C59.245 77.3563 59.042 77.2233 58.7853 77.1206C58.5287 77.018 58.237 76.934 57.9103 76.8686L56.1603 76.5116C55.395 76.367 54.7883 76.0636 54.3403 75.6016C53.8923 75.135 53.6613 74.5143 53.6473 73.7396C53.6427 73.105 53.8107 72.5566 54.1513 72.0946C54.4967 71.628 54.9633 71.2686 55.5513 71.0166C56.144 70.7646 56.8067 70.6386 57.5393 70.6386C58.412 70.6386 59.1447 70.7763 59.7373 71.0516C60.3347 71.3223 60.7873 71.691 61.0953 72.1576C61.408 72.6196 61.569 73.1353 61.5783 73.7046H59.5273C59.49 73.35 59.3827 73.0676 59.2053 72.8576C59.028 72.6476 58.7993 72.496 58.5193 72.4026C58.244 72.3093 57.929 72.2626 57.5743 72.2626C57.3037 72.2626 57.0563 72.293 56.8323 72.3536C56.613 72.4143 56.4263 72.5006 56.2723 72.6126C56.1183 72.72 55.9993 72.8483 55.9153 72.9976C55.8313 73.147 55.7893 73.315 55.7893 73.5016C55.7893 73.7956 55.8873 74.0336 56.0833 74.2156C56.2793 74.3976 56.6457 74.547 57.1823 74.6636L58.9183 75.0206C59.539 75.142 60.0313 75.3216 60.3953 75.5596C60.764 75.7976 61.0393 76.066 61.2213 76.3646C61.408 76.6633 61.5293 76.969 61.5853 77.2816C61.646 77.5896 61.6763 77.8743 61.6763 78.1356C61.6763 78.6816 61.5037 79.174 61.1583 79.6126C60.8177 80.0466 60.3417 80.392 59.7303 80.6486C59.119 80.9006 58.405 81.0266 57.5883 81.0266ZM65.2396 81.0266C64.7776 81.0266 64.3623 80.9403 63.9936 80.7676C63.625 80.595 63.3333 80.3453 63.1186 80.0186C62.904 79.6873 62.7966 79.286 62.7966 78.8146C62.7966 78.0213 63.093 77.4193 63.6856 77.0086C64.2783 76.5933 65.214 76.3786 66.4926 76.3646L67.3956 76.3506V75.9166C67.3956 75.5853 67.2976 75.331 67.1016 75.1536C66.9103 74.9716 66.6116 74.883 66.2056 74.8876C65.907 74.8923 65.6223 74.9623 65.3516 75.0976C65.0856 75.233 64.9036 75.4686 64.8056 75.8046H63.1046C63.1326 75.282 63.2843 74.8526 63.5596 74.5166C63.835 74.176 64.2083 73.924 64.6796 73.7606C65.1556 73.5926 65.6946 73.5086 66.2966 73.5086C67.0386 73.5086 67.6336 73.602 68.0816 73.7886C68.5296 73.9706 68.854 74.2343 69.0546 74.5796C69.2553 74.9203 69.3556 75.3263 69.3556 75.7976V80.8866H67.6476L67.4796 79.6406C67.2323 80.1633 66.922 80.525 66.5486 80.7256C66.18 80.9263 65.7436 81.0266 65.2396 81.0266ZM65.9256 79.6826C66.1123 79.6826 66.292 79.65 66.4646 79.5846C66.642 79.5146 66.7983 79.4236 66.9336 79.3116C67.0736 79.195 67.1856 79.0643 67.2696 78.9196C67.3536 78.775 67.3956 78.6256 67.3956 78.4716V77.4006L66.6606 77.4146C66.32 77.4193 66.0026 77.4613 65.7086 77.5406C65.4146 77.6153 65.1766 77.739 64.9946 77.9116C64.8173 78.0843 64.7286 78.3176 64.7286 78.6116C64.7286 78.9476 64.8453 79.2113 65.0786 79.4026C65.312 79.5893 65.5943 79.6826 65.9256 79.6826ZM75.5274 73.6486V75.0696H74.0014V80.8866H71.9574V75.0696H70.6204V73.6486H71.9574V72.6056C71.9574 72.0223 72.1277 71.5696 72.4684 71.2476C72.8137 70.9256 73.3014 70.7646 73.9314 70.7646H75.5904L75.5974 72.1226H74.6454C74.384 72.1226 74.2044 72.188 74.1064 72.3186C74.013 72.4446 73.9664 72.6546 73.9664 72.9486V73.6486H75.5274ZM78.3685 77.7366C78.3638 78.1053 78.4221 78.4273 78.5435 78.7026C78.6648 78.9733 78.8398 79.1833 79.0685 79.3326C79.3018 79.4773 79.5818 79.5496 79.9085 79.5496C80.2585 79.5496 80.5641 79.475 80.8255 79.3256C81.0915 79.1763 81.2758 78.9313 81.3785 78.5906H83.2195C83.1401 79.104 82.9348 79.5426 82.6035 79.9066C82.2768 80.2706 81.8801 80.5483 81.4135 80.7396C80.9468 80.931 80.4615 81.0266 79.9575 81.0266C79.2435 81.0266 78.6135 80.8773 78.0675 80.5786C77.5261 80.2753 77.1038 79.8483 76.8005 79.2976C76.4971 78.747 76.3455 78.0983 76.3455 77.3516C76.3455 76.6283 76.4831 75.9773 76.7585 75.3986C77.0338 74.8153 77.4328 74.3556 77.9555 74.0196C78.4828 73.679 79.1151 73.5086 79.8525 73.5086C80.5898 73.5086 81.2081 73.665 81.7075 73.9776C82.2115 74.2856 82.5895 74.7173 82.8415 75.2726C83.0981 75.8233 83.2265 76.4603 83.2265 77.1836V77.7366H78.3685ZM78.3615 76.5186H81.3155C81.3155 76.2293 81.2618 75.9633 81.1545 75.7206C81.0471 75.478 80.8838 75.2866 80.6645 75.1466C80.4498 75.0066 80.1791 74.9366 79.8525 74.9366C79.5351 74.9366 79.2645 75.0136 79.0405 75.1676C78.8211 75.317 78.6531 75.513 78.5365 75.7556C78.4198 75.9983 78.3615 76.2526 78.3615 76.5186ZM88.8231 75.0696H87.2131L87.2271 78.9266C87.2271 79.104 87.2481 79.237 87.2901 79.3256C87.3368 79.4096 87.4068 79.4656 87.5001 79.4936C87.5981 79.517 87.7218 79.5286 87.8711 79.5286H88.8441V80.7886C88.7508 80.8306 88.6038 80.8703 88.4031 80.9076C88.2071 80.945 87.9318 80.9636 87.5771 80.9636C86.9424 80.9636 86.4501 80.882 86.1001 80.7186C85.7548 80.5553 85.5144 80.3266 85.3791 80.0326C85.2438 79.7386 85.1761 79.398 85.1761 79.0106V75.0696H84.0001V73.6486H85.2461L85.7571 71.4646H87.2131V73.6416H88.8231V75.0696ZM91.4737 83.1966C90.979 83.1966 90.629 83.1546 90.4237 83.0706C90.223 82.9913 90.1227 82.9516 90.1227 82.9516V81.6496L90.8367 81.6776C91.1493 81.6963 91.4013 81.68 91.5927 81.6286C91.784 81.582 91.9287 81.519 92.0267 81.4396C92.1293 81.3603 92.2017 81.2763 92.2437 81.1876C92.2857 81.1036 92.316 81.036 92.3347 80.9846L92.4677 80.5856L89.6537 73.6486H91.6767L93.4127 78.3666L95.1697 73.6486H97.1647L94.2317 80.9286C93.9797 81.5446 93.7137 82.016 93.4337 82.3426C93.1537 82.6693 92.8503 82.8933 92.5237 83.0146C92.2017 83.136 91.8517 83.1966 91.4737 83.1966Z" fill="white"/>
</svg>
