<svg width="150" height="101" viewBox="0 0 150 101" fill="none" xmlns="http://www.w3.org/2000/svg">
<rect y="0.333374" width="150" height="100" rx="30" fill="#FABA18"/>
<circle cx="75" cy="33.3334" r="25" fill="#441170"/>
<path d="M75 20.3334C76.4697 20.3334 77.8793 20.9691 78.9186 22.1008C79.9578 23.2325 80.5417 24.7674 80.5417 26.3679C80.5417 27.9683 79.9578 29.5032 78.9186 30.6349C77.8793 31.7666 76.4697 32.4023 75 32.4023C73.5303 32.4023 72.1207 31.7666 71.0815 30.6349C70.0422 29.5032 69.4583 27.9683 69.4583 26.3679C69.4583 24.7674 70.0422 23.2325 71.0815 22.1008C72.1207 20.9691 73.5303 20.3334 75 20.3334ZM63.9167 24.6437C64.8033 24.6437 65.6267 24.9023 66.3392 25.3679C66.1017 27.8334 66.7667 30.2816 68.1283 32.1954C67.3367 33.8506 65.7533 34.9885 63.9167 34.9885C62.6569 34.9885 61.4487 34.4436 60.5579 33.4736C59.6671 32.5036 59.1667 31.1879 59.1667 29.8161C59.1667 28.4443 59.6671 27.1287 60.5579 26.1587C61.4487 25.1887 62.6569 24.6437 63.9167 24.6437ZM86.0833 24.6437C87.3431 24.6437 88.5513 25.1887 89.4421 26.1587C90.3329 27.1287 90.8333 28.4443 90.8333 29.8161C90.8333 31.1879 90.3329 32.5036 89.4421 33.4736C88.5513 34.4436 87.3431 34.9885 86.0833 34.9885C84.2467 34.9885 82.6633 33.8506 81.8717 32.1954C83.2333 30.2816 83.8983 27.8334 83.6608 25.3679C84.3733 24.9023 85.1967 24.6437 86.0833 24.6437ZM64.7083 42.3161C64.7083 38.7472 69.3158 35.8506 75 35.8506C80.6842 35.8506 85.2917 38.7472 85.2917 42.3161V45.3334H64.7083V42.3161ZM56 45.3334V42.7472C56 40.3506 58.9925 38.3334 63.0458 37.7472C62.1117 38.9196 61.5417 40.5403 61.5417 42.3161V45.3334H56ZM94 45.3334H88.4583V42.3161C88.4583 40.5403 87.8883 38.9196 86.9542 37.7472C91.0075 38.3334 94 40.3506 94 42.7472V45.3334Z" fill="white"/>
<path d="M11.9926 81.0267C11.4933 81.0267 11.0033 80.9637 10.5226 80.8377C10.042 80.7117 9.60328 80.5227 9.20662 80.2707C8.80995 80.0187 8.48095 79.7037 8.21962 79.3257C7.96295 78.9477 7.80895 78.5044 7.75762 77.9957H9.85062C9.92062 78.3037 10.0536 78.5627 10.2496 78.7727C10.4456 78.9827 10.693 79.1437 10.9916 79.2557C11.2903 79.3677 11.6216 79.4237 11.9856 79.4237C12.359 79.4237 12.6996 79.3771 13.0076 79.2837C13.3156 79.1904 13.563 79.0504 13.7496 78.8637C13.9363 78.6724 14.0296 78.4344 14.0296 78.1497C14.0296 77.8931 13.9526 77.6831 13.7986 77.5197C13.6493 77.3564 13.4463 77.2234 13.1896 77.1207C12.933 77.0181 12.6413 76.9341 12.3146 76.8687L10.5646 76.5117C9.79928 76.3671 9.19262 76.0637 8.74462 75.6017C8.29662 75.1351 8.06562 74.5144 8.05162 73.7397C8.04695 73.1051 8.21495 72.5567 8.55562 72.0947C8.90095 71.6281 9.36762 71.2687 9.95562 71.0167C10.5483 70.7647 11.211 70.6387 11.9436 70.6387C12.8163 70.6387 13.549 70.7764 14.1416 71.0517C14.739 71.3224 15.1916 71.6911 15.4996 72.1577C15.8123 72.6197 15.9733 73.1354 15.9826 73.7047H13.9316C13.8943 73.3501 13.787 73.0677 13.6096 72.8577C13.4323 72.6477 13.2036 72.4961 12.9236 72.4027C12.6483 72.3094 12.3333 72.2627 11.9786 72.2627C11.708 72.2627 11.4606 72.2931 11.2366 72.3537C11.0173 72.4144 10.8306 72.5007 10.6766 72.6127C10.5226 72.7201 10.4036 72.8484 10.3196 72.9977C10.2356 73.1471 10.1936 73.3151 10.1936 73.5017C10.1936 73.7957 10.2916 74.0337 10.4876 74.2157C10.6836 74.3977 11.05 74.5471 11.5866 74.6637L13.3226 75.0207C13.9433 75.1421 14.4356 75.3217 14.7996 75.5597C15.1683 75.7977 15.4436 76.0661 15.6256 76.3647C15.8123 76.6634 15.9336 76.9691 15.9896 77.2817C16.0503 77.5897 16.0806 77.8744 16.0806 78.1357C16.0806 78.6817 15.908 79.1741 15.5626 79.6127C15.222 80.0467 14.746 80.3921 14.1346 80.6487C13.5233 80.9007 12.8093 81.0267 11.9926 81.0267ZM20.6656 81.0267C19.9563 81.0267 19.338 80.8751 18.8106 80.5717C18.288 80.2684 17.882 79.8391 17.5926 79.2837C17.308 78.7284 17.1656 78.0704 17.1656 77.3097C17.1656 76.5491 17.308 75.8841 17.5926 75.3147C17.882 74.7454 18.288 74.3021 18.8106 73.9847C19.338 73.6674 19.9586 73.5087 20.6726 73.5087C21.3866 73.5087 22.005 73.6651 22.5276 73.9777C23.0503 74.2857 23.454 74.7244 23.7386 75.2937C24.0233 75.8631 24.1656 76.5351 24.1656 77.3097C24.1656 78.0377 24.0256 78.6817 23.7456 79.2417C23.4703 79.7971 23.0713 80.2334 22.5486 80.5507C22.0306 80.8681 21.403 81.0267 20.6656 81.0267ZM20.6726 79.5077C21.032 79.5077 21.3213 79.4027 21.5406 79.1927C21.76 78.9827 21.9186 78.7074 22.0166 78.3667C22.1193 78.0214 22.1706 77.6457 22.1706 77.2397C22.1706 76.8571 22.124 76.4954 22.0306 76.1547C21.942 75.8141 21.788 75.5387 21.5686 75.3287C21.3493 75.1187 21.0506 75.0137 20.6726 75.0137C20.3133 75.0137 20.0216 75.1141 19.7976 75.3147C19.5783 75.5107 19.4173 75.7791 19.3146 76.1197C19.212 76.4557 19.1606 76.8291 19.1606 77.2397C19.1606 77.6177 19.2073 77.9817 19.3006 78.3317C19.394 78.6771 19.5503 78.9594 19.7696 79.1787C19.989 79.3981 20.29 79.5077 20.6726 79.5077ZM28.6293 73.5087C29.236 73.5087 29.7587 73.6324 30.1973 73.8797C30.6407 74.1271 30.9883 74.4607 31.2403 74.8807C31.497 75.3007 31.644 75.7697 31.6813 76.2877H29.9803C29.9477 76.0964 29.88 75.9074 29.7773 75.7207C29.6747 75.5294 29.53 75.3731 29.3433 75.2517C29.1567 75.1257 28.9233 75.0627 28.6433 75.0627C28.1673 75.0627 27.78 75.2471 27.4813 75.6157C27.1873 75.9797 27.0403 76.5351 27.0403 77.2817C27.0403 77.9864 27.185 78.5464 27.4743 78.9617C27.7637 79.3724 28.1673 79.5777 28.6853 79.5777C28.9607 79.5777 29.1893 79.5101 29.3713 79.3747C29.558 79.2394 29.7027 79.0784 29.8053 78.8917C29.908 78.7004 29.9733 78.5231 30.0013 78.3597H31.6603C31.6277 78.8591 31.483 79.3117 31.2263 79.7177C30.9697 80.1191 30.6197 80.4387 30.1763 80.6767C29.7377 80.9101 29.222 81.0267 28.6293 81.0267C27.9573 81.0267 27.3577 80.8774 26.8303 80.5787C26.303 80.2801 25.8877 79.8531 25.5843 79.2977C25.2857 78.7377 25.1363 78.0704 25.1363 77.2957C25.1363 76.5491 25.281 75.8911 25.5703 75.3217C25.8597 74.7524 26.2657 74.3091 26.7883 73.9917C27.3157 73.6697 27.9293 73.5087 28.6293 73.5087ZM35.1469 73.6487V80.8867H33.1939V73.6487H35.1469ZM35.1679 70.7717V72.6127H33.1799V70.7717H35.1679ZM39.099 81.0267C38.637 81.0267 38.2217 80.9404 37.853 80.7677C37.4844 80.5951 37.1927 80.3454 36.978 80.0187C36.7634 79.6874 36.656 79.2861 36.656 78.8147C36.656 78.0214 36.9524 77.4194 37.545 77.0087C38.1377 76.5934 39.0734 76.3787 40.352 76.3647L41.255 76.3507V75.9167C41.255 75.5854 41.157 75.3311 40.961 75.1537C40.7697 74.9717 40.471 74.8831 40.065 74.8877C39.7664 74.8924 39.4817 74.9624 39.211 75.0977C38.945 75.2331 38.763 75.4687 38.665 75.8047H36.964C36.992 75.2821 37.1437 74.8527 37.419 74.5167C37.6944 74.1761 38.0677 73.9241 38.539 73.7607C39.015 73.5927 39.554 73.5087 40.156 73.5087C40.898 73.5087 41.493 73.6021 41.941 73.7887C42.389 73.9707 42.7134 74.2344 42.914 74.5797C43.1147 74.9204 43.215 75.3264 43.215 75.7977V80.8867H41.507L41.339 79.6407C41.0917 80.1634 40.7814 80.5251 40.408 80.7257C40.0394 80.9264 39.603 81.0267 39.099 81.0267ZM39.785 79.6827C39.9717 79.6827 40.1514 79.6501 40.324 79.5847C40.5014 79.5147 40.6577 79.4237 40.793 79.3117C40.933 79.1951 41.045 79.0644 41.129 78.9197C41.213 78.7751 41.255 78.6257 41.255 78.4717V77.4007L40.52 77.4147C40.1794 77.4194 39.862 77.4614 39.568 77.5407C39.274 77.6154 39.036 77.7391 38.854 77.9117C38.6767 78.0844 38.588 78.3177 38.588 78.6117C38.588 78.9477 38.7047 79.2114 38.938 79.4027C39.1714 79.5894 39.4537 79.6827 39.785 79.6827ZM47.3344 81.0127C46.8024 81.0127 46.3801 80.9497 46.0674 80.8237C45.7547 80.6977 45.5237 80.5321 45.3744 80.3267C45.2251 80.1167 45.1294 79.8857 45.0874 79.6337C45.0454 79.3771 45.0244 79.1181 45.0244 78.8567V70.4847H47.0264V78.6047C47.0264 78.8707 47.0824 79.0877 47.1944 79.2557C47.3111 79.4191 47.5281 79.5194 47.8454 79.5567L48.1884 79.5777V80.8377C48.0484 80.8844 47.9061 80.9241 47.7614 80.9567C47.6167 80.9941 47.4744 81.0127 47.3344 81.0127ZM56.6459 70.6107C57.2199 70.6107 57.7403 70.7041 58.2069 70.8907C58.6783 71.0727 59.0516 71.3294 59.3269 71.6607C59.6069 71.9874 59.7469 72.3701 59.7469 72.8087C59.7469 73.0327 59.7003 73.2591 59.6069 73.4877C59.5136 73.7117 59.3736 73.9381 59.1869 74.1667C59.0049 74.3907 58.7739 74.6147 58.4939 74.8387C58.2139 75.0627 57.8849 75.2867 57.5069 75.5107L59.0889 77.3727C59.1543 77.2281 59.2336 77.0414 59.3269 76.8127C59.4203 76.5841 59.5089 76.3274 59.5929 76.0427C59.6769 75.7534 59.7376 75.4524 59.7749 75.1397H61.8679C61.7513 75.5551 61.5879 75.9587 61.3779 76.3507C61.1726 76.7427 60.9509 77.1231 60.7129 77.4917C60.4796 77.8557 60.2603 78.2081 60.0549 78.5487L62.0569 80.8867H59.7119L58.8439 79.8927C58.3026 80.2894 57.7496 80.5671 57.1849 80.7257C56.6203 80.8797 56.0883 80.9567 55.5889 80.9567C54.8469 80.9567 54.2333 80.8471 53.7479 80.6277C53.2673 80.4037 52.9103 80.0957 52.6769 79.7037C52.4436 79.3117 52.3269 78.8591 52.3269 78.3457C52.3269 77.8837 52.4203 77.4754 52.6069 77.1207C52.7983 76.7614 53.0829 76.4324 53.4609 76.1337C53.8389 75.8304 54.3103 75.5294 54.8749 75.2307C54.6369 74.9647 54.4269 74.7174 54.2449 74.4887C54.0629 74.2601 53.9206 74.0267 53.8179 73.7887C53.7153 73.5461 53.6639 73.2754 53.6639 72.9767C53.6639 72.5287 53.7899 72.1274 54.0419 71.7727C54.2939 71.4134 54.6439 71.1311 55.0919 70.9257C55.5399 70.7157 56.0579 70.6107 56.6459 70.6107ZM56.7439 71.8567C56.4126 71.8661 56.1513 71.9664 55.9599 72.1577C55.7733 72.3444 55.6799 72.5707 55.6799 72.8367C55.6799 72.9907 55.7126 73.1471 55.7779 73.3057C55.8433 73.4644 55.9273 73.6184 56.0299 73.7677C56.1373 73.9124 56.2516 74.0501 56.3729 74.1807L56.6599 74.4817C56.9959 74.2717 57.2573 74.0804 57.4439 73.9077C57.6353 73.7304 57.7683 73.5601 57.8429 73.3967C57.9176 73.2334 57.9549 73.0677 57.9549 72.8997C57.9549 72.6524 57.8966 72.4517 57.7799 72.2977C57.6679 72.1391 57.5186 72.0247 57.3319 71.9547C57.1499 71.8801 56.9539 71.8474 56.7439 71.8567ZM55.8759 76.3927C55.5026 76.6027 55.1853 76.8641 54.9239 77.1767C54.6673 77.4847 54.5646 77.8371 54.6159 78.2337C54.6439 78.4857 54.7326 78.6981 54.8819 78.8707C55.0359 79.0434 55.2203 79.1741 55.4349 79.2627C55.6496 79.3514 55.8689 79.3957 56.0929 79.3957C56.3636 79.3957 56.6646 79.3374 56.9959 79.2207C57.3273 79.0994 57.6166 78.9244 57.8639 78.6957L55.8759 76.3927ZM70.8576 70.6247C71.6183 70.6247 72.2949 70.7787 72.8876 71.0867C73.4849 71.3901 73.9656 71.8054 74.3296 72.3327C74.6983 72.8601 74.9153 73.4551 74.9806 74.1177H72.8386C72.7733 73.7677 72.6543 73.4574 72.4816 73.1867C72.3089 72.9114 72.0826 72.6967 71.8026 72.5427C71.5226 72.3841 71.1866 72.3047 70.7946 72.3047C70.3233 72.3047 69.9173 72.4191 69.5766 72.6477C69.2359 72.8764 68.9746 73.2451 68.7926 73.7537C68.6106 74.2624 68.5196 74.9344 68.5196 75.7697C68.5196 77.0297 68.7203 77.9421 69.1216 78.5067C69.5276 79.0667 70.0853 79.3467 70.7946 79.3467C71.1866 79.3467 71.5226 79.2581 71.8026 79.0807C72.0826 78.8987 72.3089 78.6607 72.4816 78.3667C72.6543 78.0681 72.7733 77.7414 72.8386 77.3867H74.9806C74.9199 77.8674 74.8033 78.3271 74.6306 78.7657C74.4579 79.1997 74.2129 79.5871 73.8956 79.9277C73.5783 80.2684 73.1699 80.5367 72.6706 80.7327C72.1713 80.9287 71.5669 81.0267 70.8576 81.0267C69.9149 81.0267 69.1006 80.8074 68.4146 80.3687C67.7286 79.9301 67.1989 79.3141 66.8256 78.5207C66.4569 77.7274 66.2726 76.8011 66.2726 75.7417C66.2726 74.6777 66.4569 73.7654 66.8256 73.0047C67.1943 72.2394 67.7216 71.6514 68.4076 71.2407C69.0936 70.8301 69.9103 70.6247 70.8576 70.6247ZM79.6598 81.0267C78.9504 81.0267 78.3321 80.8751 77.8048 80.5717C77.2821 80.2684 76.8761 79.8391 76.5868 79.2837C76.3021 78.7284 76.1598 78.0704 76.1598 77.3097C76.1598 76.5491 76.3021 75.8841 76.5868 75.3147C76.8761 74.7454 77.2821 74.3021 77.8048 73.9847C78.3321 73.6674 78.9528 73.5087 79.6668 73.5087C80.3808 73.5087 80.9991 73.6651 81.5218 73.9777C82.0444 74.2857 82.4481 74.7244 82.7328 75.2937C83.0174 75.8631 83.1598 76.5351 83.1598 77.3097C83.1598 78.0377 83.0198 78.6817 82.7398 79.2417C82.4644 79.7971 82.0654 80.2334 81.5428 80.5507C81.0248 80.8681 80.3971 81.0267 79.6598 81.0267ZM79.6668 79.5077C80.0261 79.5077 80.3154 79.4027 80.5348 79.1927C80.7541 78.9827 80.9128 78.7074 81.0108 78.3667C81.1134 78.0214 81.1648 77.6457 81.1648 77.2397C81.1648 76.8571 81.1181 76.4954 81.0248 76.1547C80.9361 75.8141 80.7821 75.5387 80.5628 75.3287C80.3434 75.1187 80.0448 75.0137 79.6668 75.0137C79.3074 75.0137 79.0158 75.1141 78.7918 75.3147C78.5724 75.5107 78.4114 75.7791 78.3088 76.1197C78.2061 76.4557 78.1548 76.8291 78.1548 77.2397C78.1548 77.6177 78.2014 77.9817 78.2948 78.3317C78.3881 78.6771 78.5444 78.9594 78.7638 79.1787C78.9831 79.3981 79.2841 79.5077 79.6668 79.5077ZM84.5225 80.8867V73.6487H86.5245V74.6707C86.7438 74.3534 87.0378 74.0804 87.4065 73.8517C87.7798 73.6231 88.2488 73.5087 88.8135 73.5087C89.0608 73.5087 89.3128 73.5531 89.5695 73.6417C89.8261 73.7304 90.0665 73.8611 90.2905 74.0337C90.5191 74.2017 90.7035 74.4141 90.8435 74.6707C91.0768 74.3394 91.3825 74.0641 91.7605 73.8447C92.1431 73.6207 92.5678 73.5087 93.0345 73.5087C93.3051 73.5087 93.5781 73.5531 93.8535 73.6417C94.1335 73.7304 94.3901 73.8751 94.6235 74.0757C94.8568 74.2764 95.0435 74.5447 95.1835 74.8807C95.3281 75.2121 95.4005 75.6227 95.4005 76.1127V80.8867H93.3565V76.3647C93.3565 76.0754 93.2981 75.8444 93.1815 75.6717C93.0695 75.4944 92.9248 75.3684 92.7475 75.2937C92.5748 75.2144 92.3905 75.1747 92.1945 75.1747C92.0125 75.1747 91.8281 75.2121 91.6415 75.2867C91.4548 75.3567 91.2961 75.4711 91.1655 75.6297C91.0348 75.7884 90.9695 75.9961 90.9695 76.2527V80.8867H88.9325V76.1827C88.9325 75.9634 88.8741 75.7791 88.7575 75.6297C88.6408 75.4804 88.4938 75.3684 88.3165 75.2937C88.1438 75.2144 87.9665 75.1747 87.7845 75.1747C87.5978 75.1747 87.4111 75.2144 87.2245 75.2937C87.0378 75.3684 86.8815 75.4874 86.7555 75.6507C86.6295 75.8094 86.5665 76.0101 86.5665 76.2527V80.8867H84.5225ZM97.0596 80.8867V73.6487H99.0616V74.6707C99.2809 74.3534 99.5749 74.0804 99.9436 73.8517C100.317 73.6231 100.786 73.5087 101.351 73.5087C101.598 73.5087 101.85 73.5531 102.107 73.6417C102.363 73.7304 102.604 73.8611 102.828 74.0337C103.056 74.2017 103.241 74.4141 103.381 74.6707C103.614 74.3394 103.92 74.0641 104.298 73.8447C104.68 73.6207 105.105 73.5087 105.572 73.5087C105.842 73.5087 106.115 73.5531 106.391 73.6417C106.671 73.7304 106.927 73.8751 107.161 74.0757C107.394 74.2764 107.581 74.5447 107.721 74.8807C107.865 75.2121 107.938 75.6227 107.938 76.1127V80.8867H105.894V76.3647C105.894 76.0754 105.835 75.8444 105.719 75.6717C105.607 75.4944 105.462 75.3684 105.285 75.2937C105.112 75.2144 104.928 75.1747 104.732 75.1747C104.55 75.1747 104.365 75.2121 104.179 75.2867C103.992 75.3567 103.833 75.4711 103.703 75.6297C103.572 75.7884 103.507 75.9961 103.507 76.2527V80.8867H101.47V76.1827C101.47 75.9634 101.411 75.7791 101.295 75.6297C101.178 75.4804 101.031 75.3684 100.854 75.2937C100.681 75.2144 100.504 75.1747 100.322 75.1747C100.135 75.1747 99.9482 75.2144 99.7616 75.2937C99.5749 75.3684 99.4186 75.4874 99.2926 75.6507C99.1666 75.8094 99.1036 76.0101 99.1036 76.2527V80.8867H97.0596ZM112.182 81.0267C111.846 81.0267 111.514 80.9754 111.188 80.8727C110.866 80.7701 110.572 80.6184 110.306 80.4177C110.04 80.2171 109.825 79.9697 109.662 79.6757C109.503 79.3817 109.424 79.0411 109.424 78.6537V73.6487H111.468V78.3947C111.468 78.7307 111.577 79.0061 111.797 79.2207C112.016 79.4354 112.338 79.5427 112.763 79.5427C113.164 79.5427 113.481 79.4401 113.715 79.2347C113.953 79.0247 114.072 78.7331 114.072 78.3597V73.6487H116.095V80.8867H114.555L114.317 79.4517C114.233 79.8764 114.074 80.2031 113.841 80.4317C113.612 80.6557 113.348 80.8097 113.05 80.8937C112.756 80.9824 112.466 81.0267 112.182 81.0267ZM117.8 80.8867V73.6487H119.809V74.6707C119.921 74.4934 120.065 74.3231 120.243 74.1597C120.425 73.9917 120.653 73.8541 120.929 73.7467C121.204 73.6394 121.531 73.5857 121.909 73.5857C122.352 73.5857 122.765 73.6721 123.148 73.8447C123.535 74.0174 123.848 74.2904 124.086 74.6637C124.324 75.0324 124.443 75.5154 124.443 76.1127V80.8867H122.399V76.3647C122.399 75.9727 122.282 75.6787 122.049 75.4827C121.815 75.2867 121.531 75.1887 121.195 75.1887C120.971 75.1887 120.754 75.2284 120.544 75.3077C120.338 75.3871 120.17 75.5061 120.04 75.6647C119.909 75.8234 119.844 76.0194 119.844 76.2527V80.8867H117.8ZM128.157 73.6487V80.8867H126.204V73.6487H128.157ZM128.178 70.7717V72.6127H126.19V70.7717H128.178ZM134.419 75.0697H132.809L132.823 78.9267C132.823 79.1041 132.844 79.2371 132.886 79.3257C132.932 79.4097 133.002 79.4657 133.096 79.4937C133.194 79.5171 133.317 79.5287 133.467 79.5287H134.44V80.7887C134.346 80.8307 134.199 80.8704 133.999 80.9077C133.803 80.9451 133.527 80.9637 133.173 80.9637C132.538 80.9637 132.046 80.8821 131.696 80.7187C131.35 80.5554 131.11 80.3267 130.975 80.0327C130.839 79.7387 130.772 79.3981 130.772 79.0107V75.0697H129.596V73.6487H130.842L131.353 71.4647H132.809V73.6417H134.419V75.0697ZM137.069 83.1967C136.575 83.1967 136.225 83.1547 136.019 83.0707C135.819 82.9914 135.718 82.9517 135.718 82.9517V81.6497L136.432 81.6777C136.745 81.6964 136.997 81.6801 137.188 81.6287C137.38 81.5821 137.524 81.5191 137.622 81.4397C137.725 81.3604 137.797 81.2764 137.839 81.1877C137.881 81.1037 137.912 81.0361 137.93 80.9847L138.063 80.5857L135.249 73.6487H137.272L139.008 78.3667L140.765 73.6487H142.76L139.827 80.9287C139.575 81.5447 139.309 82.0161 139.029 82.3427C138.749 82.6694 138.446 82.8934 138.119 83.0147C137.797 83.1361 137.447 83.1967 137.069 83.1967Z" fill="white"/>
</svg>
