<svg width="150" height="101" viewBox="0 0 150 101" fill="none" xmlns="http://www.w3.org/2000/svg">
<rect y="0.333984" width="150" height="100" rx="30" fill="#9E3F81"/>
<circle cx="75" cy="33.334" r="25" fill="#441170"/>
<path d="M68.9474 38.0971L65 41.9656V30.8603H68.9474M75.5263 35.6761L73.4605 33.9129L71.5789 35.6498V25.5971H75.5263M82.1053 33.4919L78.1579 37.4392V20.334H82.1053M85.8026 33.2419L83.4211 30.8603H90V37.4392L87.6447 35.084L78.1579 44.4919L73.5921 40.5182L68.6184 45.334H65L73.5132 36.9919L78.1579 40.9129" fill="white"/>
<path d="M43.8069 80.8877V70.7657H50.7579L50.7509 72.4877H45.8579V74.9447H50.1069V76.6317H45.8439V79.1447L50.8279 79.1517V80.8877H43.8069ZM55.4946 73.5097C56.1012 73.5097 56.6239 73.6334 57.0626 73.8807C57.5059 74.128 57.8536 74.4617 58.1056 74.8817C58.3622 75.3017 58.5092 75.7707 58.5466 76.2887H56.8456C56.8129 76.0974 56.7452 75.9084 56.6426 75.7217C56.5399 75.5304 56.3952 75.374 56.2086 75.2527C56.0219 75.1267 55.7886 75.0637 55.5086 75.0637C55.0326 75.0637 54.6452 75.248 54.3466 75.6167C54.0526 75.9807 53.9056 76.536 53.9056 77.2827C53.9056 77.9874 54.0502 78.5474 54.3396 78.9627C54.6289 79.3734 55.0326 79.5787 55.5506 79.5787C55.8259 79.5787 56.0546 79.511 56.2366 79.3757C56.4232 79.2404 56.5679 79.0794 56.6706 78.8927C56.7732 78.7014 56.8386 78.524 56.8666 78.3607H58.5256C58.4929 78.86 58.3482 79.3127 58.0916 79.7187C57.8349 80.12 57.4849 80.4397 57.0416 80.6777C56.6029 80.911 56.0872 81.0277 55.4946 81.0277C54.8226 81.0277 54.2229 80.8784 53.6956 80.5797C53.1682 80.281 52.7529 79.854 52.4496 79.2987C52.1509 78.7387 52.0016 78.0714 52.0016 77.2967C52.0016 76.55 52.1462 75.892 52.4356 75.3227C52.7249 74.7534 53.1309 74.31 53.6536 73.9927C54.1809 73.6707 54.7946 73.5097 55.4946 73.5097ZM63.0621 81.0277C62.3528 81.0277 61.7344 80.876 61.2071 80.5727C60.6844 80.2694 60.2784 79.84 59.9891 79.2847C59.7044 78.7294 59.5621 78.0714 59.5621 77.3107C59.5621 76.55 59.7044 75.885 59.9891 75.3157C60.2784 74.7464 60.6844 74.303 61.2071 73.9857C61.7344 73.6684 62.3551 73.5097 63.0691 73.5097C63.7831 73.5097 64.4014 73.666 64.9241 73.9787C65.4468 74.2867 65.8504 74.7254 66.1351 75.2947C66.4198 75.864 66.5621 76.536 66.5621 77.3107C66.5621 78.0387 66.4221 78.6827 66.1421 79.2427C65.8668 79.798 65.4678 80.2344 64.9451 80.5517C64.4271 80.869 63.7994 81.0277 63.0621 81.0277ZM63.0691 79.5087C63.4284 79.5087 63.7178 79.4037 63.9371 79.1937C64.1564 78.9837 64.3151 78.7084 64.4131 78.3677C64.5158 78.0224 64.5671 77.6467 64.5671 77.2407C64.5671 76.858 64.5204 76.4964 64.4271 76.1557C64.3384 75.815 64.1844 75.5397 63.9651 75.3297C63.7458 75.1197 63.4471 75.0147 63.0691 75.0147C62.7098 75.0147 62.4181 75.115 62.1941 75.3157C61.9748 75.5117 61.8138 75.78 61.7111 76.1207C61.6084 76.4567 61.5571 76.83 61.5571 77.2407C61.5571 77.6187 61.6038 77.9827 61.6971 78.3327C61.7904 78.678 61.9468 78.9604 62.1661 79.1797C62.3854 79.399 62.6864 79.5087 63.0691 79.5087ZM67.9248 80.8877V73.6497H69.9338V74.6717C70.0458 74.4944 70.1905 74.324 70.3678 74.1607C70.5498 73.9927 70.7785 73.855 71.0538 73.7477C71.3291 73.6404 71.6558 73.5867 72.0338 73.5867C72.4771 73.5867 72.8901 73.673 73.2728 73.8457C73.6601 74.0184 73.9728 74.2914 74.2108 74.6647C74.4488 75.0334 74.5678 75.5164 74.5678 76.1137V80.8877H72.5238V76.3657C72.5238 75.9737 72.4071 75.6797 72.1738 75.4837C71.9405 75.2877 71.6558 75.1897 71.3198 75.1897C71.0958 75.1897 70.8788 75.2294 70.6688 75.3087C70.4635 75.388 70.2955 75.507 70.1648 75.6657C70.0341 75.8244 69.9688 76.0204 69.9688 76.2537V80.8877H67.9248ZM79.3316 81.0277C78.6223 81.0277 78.004 80.876 77.4766 80.5727C76.954 80.2694 76.548 79.84 76.2586 79.2847C75.974 78.7294 75.8316 78.0714 75.8316 77.3107C75.8316 76.55 75.974 75.885 76.2586 75.3157C76.548 74.7464 76.954 74.303 77.4766 73.9857C78.004 73.6684 78.6246 73.5097 79.3386 73.5097C80.0526 73.5097 80.671 73.666 81.1936 73.9787C81.7163 74.2867 82.12 74.7254 82.4046 75.2947C82.6893 75.864 82.8316 76.536 82.8316 77.3107C82.8316 78.0387 82.6916 78.6827 82.4116 79.2427C82.1363 79.798 81.7373 80.2344 81.2146 80.5517C80.6966 80.869 80.069 81.0277 79.3316 81.0277ZM79.3386 79.5087C79.698 79.5087 79.9873 79.4037 80.2066 79.1937C80.426 78.9837 80.5846 78.7084 80.6826 78.3677C80.7853 78.0224 80.8366 77.6467 80.8366 77.2407C80.8366 76.858 80.79 76.4964 80.6966 76.1557C80.608 75.815 80.454 75.5397 80.2346 75.3297C80.0153 75.1197 79.7166 75.0147 79.3386 75.0147C78.9793 75.0147 78.6876 75.115 78.4636 75.3157C78.2443 75.5117 78.0833 75.78 77.9806 76.1207C77.878 76.4567 77.8266 76.83 77.8266 77.2407C77.8266 77.6187 77.8733 77.9827 77.9666 78.3327C78.06 78.678 78.2163 78.9604 78.4356 79.1797C78.655 79.399 78.956 79.5087 79.3386 79.5087ZM84.1943 80.8877V73.6497H86.1963V74.6717C86.4157 74.3544 86.7097 74.0814 87.0783 73.8527C87.4517 73.624 87.9207 73.5097 88.4853 73.5097C88.7327 73.5097 88.9847 73.554 89.2413 73.6427C89.498 73.7314 89.7383 73.862 89.9623 74.0347C90.191 74.2027 90.3753 74.415 90.5153 74.6717C90.7487 74.3404 91.0543 74.065 91.4323 73.8457C91.815 73.6217 92.2397 73.5097 92.7063 73.5097C92.977 73.5097 93.25 73.554 93.5253 73.6427C93.8053 73.7314 94.062 73.876 94.2953 74.0767C94.5287 74.2774 94.7153 74.5457 94.8553 74.8817C95 75.213 95.0723 75.6237 95.0723 76.1137V80.8877H93.0283V76.3657C93.0283 76.0764 92.97 75.8454 92.8533 75.6727C92.7413 75.4954 92.5967 75.3694 92.4193 75.2947C92.2467 75.2154 92.0623 75.1757 91.8663 75.1757C91.6843 75.1757 91.5 75.213 91.3133 75.2877C91.1267 75.3577 90.968 75.472 90.8373 75.6307C90.7067 75.7894 90.6413 75.997 90.6413 76.2537V80.8877H88.6043V76.1837C88.6043 75.9644 88.546 75.78 88.4293 75.6307C88.3127 75.4814 88.1657 75.3694 87.9883 75.2947C87.8157 75.2154 87.6383 75.1757 87.4563 75.1757C87.2697 75.1757 87.083 75.2154 86.8963 75.2947C86.7097 75.3694 86.5533 75.4884 86.4273 75.6517C86.3013 75.8104 86.2383 76.011 86.2383 76.2537V80.8877H84.1943ZM98.7894 73.6497V80.8877H96.8364V73.6497H98.7894ZM98.8104 70.7727V72.6137H96.8224V70.7727H98.8104ZM103.743 73.5097C104.349 73.5097 104.872 73.6334 105.311 73.8807C105.754 74.128 106.102 74.4617 106.354 74.8817C106.61 75.3017 106.757 75.7707 106.795 76.2887H105.094C105.061 76.0974 104.993 75.9084 104.891 75.7217C104.788 75.5304 104.643 75.374 104.457 75.2527C104.27 75.1267 104.037 75.0637 103.757 75.0637C103.281 75.0637 102.893 75.248 102.595 75.6167C102.301 75.9807 102.154 76.536 102.154 77.2827C102.154 77.9874 102.298 78.5474 102.588 78.9627C102.877 79.3734 103.281 79.5787 103.799 79.5787C104.074 79.5787 104.303 79.511 104.485 79.3757C104.671 79.2404 104.816 79.0794 104.919 78.8927C105.021 78.7014 105.087 78.524 105.115 78.3607H106.774C106.741 78.86 106.596 79.3127 106.34 79.7187C106.083 80.12 105.733 80.4397 105.29 80.6777C104.851 80.911 104.335 81.0277 103.743 81.0277C103.071 81.0277 102.471 80.8784 101.944 80.5797C101.416 80.281 101.001 79.854 100.698 79.2987C100.399 78.7387 100.25 78.0714 100.25 77.2967C100.25 76.55 100.394 75.892 100.684 75.3227C100.973 74.7534 101.379 74.31 101.902 73.9927C102.429 73.6707 103.043 73.5097 103.743 73.5097Z" fill="white"/>
</svg>
